# xmcd
#
# Track frame offsets:
#	150
#	27764
#	48727
#	78652
#	94550
#	112080
#	129028
#	147647
#
# Disc length: 2344 seconds
#
# Revision: 0
# Processed by: cddbd v1.5.2PL0 Copyright (c) Steve Scherf et al.
# Submitted via: audiograbber 1.83.01
#
DISCID=69092608
DTITLE=Foghat - The Complete Bearsville Albums Collection [CD 04) - Rock And Ro
DTITLE=ll Outlaws [remastered 2016]
DYEAR=1974
DGENRE=Rock
TTITLE0=Eight Days On The Road
TTITLE1=Hate To See You Go
TTITLE2=Dreamer
TTITLE3=Trouble In My Way
TTITLE4=Rock And Roll Outlaw
TTITLE5=Shirley Jean
TTITLE6=Blue Spruce Woman
TTITLE7=Chateau Lafitte '59 Boogie
EXTD=
EXTT0=
EXTT1=
EXTT2=
EXTT3=
EXTT4=
EXTT5=
EXTT6=
EXTT7=
PLAYORDER=
